<svg width="190" height="128" viewBox="0 0 190 128" version="1.1" xmlns="http://www.w3.org/2000/svg" xmlns:xlink="http://www.w3.org/1999/xlink" xmlns:figma="http://www.figma.com/figma/ns">
<title>Symbol</title>
<desc>Created using Figma</desc>
<g id="Canvas" transform="translate(-1243 -274)" figma:type="canvas">
<g id="Symbol" style="mix-blend-mode:normal;isolation:isolate;" figma:type="frame">
<g id="Sketch" style="mix-blend-mode:normal;" figma:type="frame">
<g id="back" style="mix-blend-mode:normal;" figma:type="vector">
<use xlink:href="#path0_fill" transform="translate(1251.6 274)" fill="#A70000" style="mix-blend-mode:normal;"/>
<use xlink:href="#path1_fill" transform="translate(1251.6 274)" fill="#A70000" style="mix-blend-mode:normal;"/>
<use xlink:href="#path2_fill" transform="translate(1251.6 274)" fill="#A70000" style="mix-blend-mode:normal;"/>
<use xlink:href="#path3_fill" transform="translate(1251.6 274)" fill="#A70000" style="mix-blend-mode:normal;"/>
<use xlink:href="#path4_fill" transform="translate(1251.6 274)" fill="#A70000" style="mix-blend-mode:normal;"/>
</g>
<g id="front" style="mix-blend-mode:normal;" figma:type="vector">
<use xlink:href="#path5_fill" transform="translate(1243.47 278.225)" fill="#EB2828" style="mix-blend-mode:normal;"/>
</g>
</g>
<g id="Mask Group" style="mix-blend-mode:normal;" figma:type="frame">
<mask id="mask0_alpha" mask-type="alpha">
<g id="front" style="mix-blend-mode:normal;" figma:type="vector">
<use xlink:href="#path5_fill" transform="translate(1243.47 278.225)" fill="#EB2828" style="mix-blend-mode:normal;"/>
</g>
</mask>
<g id="bricks (Stroke)" style="mix-blend-mode:normal;" mask="url(#mask0_alpha)" figma:type="vector">
<use xlink:href="#path6_fill" transform="translate(1242.37 275.099)" fill="#B81F1F" style="mix-blend-mode:normal;"/>
</g>
</g>
</g>
</g>
<defs>
<path id="path0_fill" fill-rule="evenodd" d="M 45.6311 0.347435C 47.5634 0.11581 49.5141 0 51.4825 0C 49.4577 0.0625668 47.51 0.176255 45.6311 0.347435Z"/>
<path id="path1_fill" d="M 179.608 121.913C 179.023 123.035 178.119 123.775 176.724 123.775L 176.039 123.765L 168.581 123.663L 158.16 123.52L 168.581 128C 171.466 128 179.024 123.8 179.608 121.913Z"/>
<path id="path2_fill" d="M 51.4825 27.307C 44.7172 27.307 38.8594 29.8591 33.9091 34.9632C 33.7544 35.1227 33.6022 35.2833 33.4523 35.4449C 33.4394 35.4588 33.4265 35.4728 33.4137 35.4867C 36.7386 32.4015 38.2546 32.1116 40.7896 31.6627L 51.4825 27.307Z"/>
<path id="path3_fill" d="M 90.3419 17.6092C 80.2764 5.86973 67.3233 0 51.4825 0C 49.4577 0.0625668 47.51 0.176255 45.6311 0.347435C 42.7185 0.696572 39.8477 1.20459 37.0206 2.08C 34.1936 2.9554 31.9424 3.64535 27.8959 5.5C 25.0944 6.78401 16.3959 12 15.8959 12.5L 15.0982 15.0571C 5.03276 25.4355 1.11022e-16 38.0256 1.11022e-16 52.8276L 1.11022e-16 114.077C 1.11022e-16 117.65 -2.86102e-06 123.52 3.9602 123.52L 14.3815 128C 17.2664 128 24.8237 123.8 25.4085 121.913C 26.4838 119.852 26.4838 116.501 26.4838 114.077L 26.4838 53.5932C 26.4838 50.9441 26.8083 48.44 27.4574 46.0808C 28.2571 43.1739 29.5497 40.4872 31.335 38.0206C 31.9645 37.1509 32.6552 36.3086 33.4072 35.4937L 33.4137 35.4867L 33.4523 35.4449C 33.6022 35.2833 33.7544 35.1227 33.9091 34.9632C 38.8594 29.8591 44.7172 27.307 51.4825 27.307C 58.4129 27.307 64.3532 29.8591 69.3034 34.9632C 74.2536 39.8972 76.8113 45.852 76.9763 52.8276L 76.9763 114.077C 76.9763 117.65 76.9763 123.52 80.9365 123.52L 91.3577 128C 94.2426 128 101.8 123.8 102.385 121.913C 103.46 119.852 103.46 116.501 103.46 114.077L 103.46 52.8276C 103.773 46.059 106.157 40.2833 110.615 35.4992C 110.864 35.2326 111.119 34.9684 111.38 34.708C 116.331 29.774 122.188 27.307 128.954 27.307C 135.884 27.307 141.824 29.8591 146.775 34.9632C 151.725 40.0673 154.2 46.2773 154.2 53.5932L 154.2 114.077C 154.2 117.82 154.2 123.52 158.16 123.52L 168.581 123.663L 176.039 123.765L 176.724 123.775C 178.119 123.775 179.023 123.035 179.608 121.913C 179.646 121.841 179.682 121.768 179.717 121.693C 180.684 119.62 180.684 116.416 180.684 114.077L 180.684 53.5932C 180.684 38.7913 175.651 26.2011 165.586 15.8228C 155.52 5.27425 142.897 0 127.716 0C 119.479 0 112.044 1.7279 105.41 5.18414L 97.2681 9.40941L 90.3419 17.6092Z"/>
<path id="path4_fill" d="M 128.954 27.307C 122.188 27.307 116.331 29.774 111.38 34.708C 111.119 34.9684 110.864 35.2326 110.615 35.4992C 113.942 32.4114 115.475 32.1392 118.007 31.6906L 118.014 31.6894L 128.69 27.3125L 128.954 27.307Z"/>
<path id="path5_fill" d="M 24.9987 7.65617C 33.3936 2.55205 42.2421 0 51.4825 0C 67.3233 0 80.2764 5.86973 90.3419 17.6092C 100.077 5.86973 112.535 0 127.716 0C 142.897 0 155.52 5.27425 165.586 15.8227C 175.651 26.2011 180.684 38.7913 180.684 53.5932L 180.684 114.077C 180.684 117.82 180.684 123.775 176.724 123.775L 158.16 123.775C 154.2 123.775 154.2 117.82 154.2 114.077L 154.2 53.5932C 154.2 46.2773 151.725 40.0673 146.775 34.9632C 141.824 29.8591 135.884 27.307 128.954 27.307C 122.188 27.307 116.331 29.774 111.38 34.708C 106.43 39.6419 103.79 45.6818 103.46 52.8276L 103.46 114.077C 103.46 117.82 103.46 123.775 99.4999 123.775L 80.9365 123.52C 76.9763 123.52 76.9763 117.65 76.9763 114.077L 76.9763 52.8276C 76.8113 45.8519 74.2536 39.8971 69.3034 34.9632C 64.3532 29.8591 58.4129 27.307 51.4825 27.307C 44.7172 27.307 38.8594 29.8591 33.9091 34.9632C 28.9589 40.0673 26.4838 46.2773 26.4838 53.5932L 26.4838 114.077C 26.4838 117.82 26.4838 123.775 22.5236 123.775L 3.9602 123.52C -2.71665e-06 123.52 5.6475e-18 117.65 5.6475e-18 114.077L 5.6475e-18 52.8276C 5.6475e-18 38.0256 5.03276 25.4355 15.0982 15.0571C 18.1281 11.9331 22.2084 9.3527 24.9987 7.65617Z"/>
<path id="path6_fill" fill-rule="evenodd" d="M 60.5968 6.88717L 60.5968 0L 61.8176 0L 61.8176 6.88717L 68.7818 6.88718L 76.3564 6.88718L 83.931 6.88718L 84.5414 6.88718L 84.5414 7.52097L 84.5414 14.4082L 91.5056 14.4082L 98.4698 14.4082L 98.4698 7.52098L 98.4698 6.88719L 99.0802 6.88719L 106.655 6.88722L 114.229 6.88722L 121.194 6.88722L 121.194 3.94893e-05L 122.414 3.94893e-05L 122.414 6.88722L 129.379 6.88722L 136.343 6.88724L 136.343 6.52782e-05L 137.564 6.52782e-05L 137.564 6.88723L 144.528 6.88724L 151.492 6.88724L 151.492 6.52782e-05L 152.713 6.52782e-05L 152.713 6.88724L 159.677 6.88724L 160.287 6.88724L 160.287 7.52103L 160.287 14.4082L 167.252 14.4082L 167.862 14.4082L 167.862 15.042L 167.862 21.9291L 174.826 21.9291L 175.437 21.9291L 175.437 22.5629L 175.437 30.0839L 175.437 30.7177L 174.826 30.7177L 167.862 30.7177L 167.862 36.9711L 174.826 36.9711L 175.437 36.9711L 182.401 36.9711L 182.401 38.2386L 175.437 38.2386L 175.437 44.492L 182.401 44.492L 183.011 44.492L 183.011 45.1258L 183.011 52.6468L 183.011 53.2806L 182.401 53.2806L 175.437 53.2806L 175.437 59.534L 182.401 59.534L 183.011 59.534L 183.011 60.1678L 183.011 67.6887L 183.011 68.3225L 182.401 68.3225L 175.437 68.3225L 175.437 74.5759L 182.401 74.5759L 183.011 74.5759L 183.011 75.2097L 183.011 82.7306L 183.011 83.3644L 182.401 83.3644L 175.437 83.3644L 175.437 89.6178L 182.401 89.6178L 183.011 89.6178L 183.011 90.2516L 183.011 97.7725L 183.011 98.4063L 182.401 98.4063L 175.437 98.4063L 175.437 104.66L 182.401 104.66L 183.011 104.66L 183.011 105.294L 183.011 112.814L 183.011 113.448L 182.401 113.448L 175.437 113.448L 175.437 119.702L 182.401 119.702L 183.011 119.702L 183.011 120.335L 183.011 127.856L 183.011 128.49L 182.401 128.49L 174.826 128.49L 167.252 128.49L 166.641 128.49L 159.677 128.49L 159.677 127.223L 166.641 127.223L 166.641 120.969L 159.677 120.969L 152.103 120.969L 152.103 119.702L 159.067 119.702L 159.067 113.448L 152.103 113.448L 152.103 112.181L 159.067 112.181L 159.677 112.181L 166.641 112.181L 166.641 105.927L 159.677 105.927L 159.067 105.927L 152.103 105.927L 152.103 104.66L 159.067 104.66L 159.067 98.4063L 152.103 98.4063L 152.103 97.1388L 159.677 97.1388L 166.641 97.1388L 166.641 90.8854L 159.677 90.8854L 159.067 90.8854L 152.103 90.8854L 152.103 89.6178L 159.067 89.6178L 159.067 83.3644L 152.103 83.3644L 152.103 82.0968L 159.067 82.0968L 159.677 82.0968L 166.641 82.0968L 166.641 75.8435L 159.677 75.8435L 152.103 75.8435L 152.103 74.5759L 159.067 74.5759L 159.067 68.3225L 152.103 68.3225L 152.103 67.0549L 159.067 67.0549L 159.677 67.0549L 166.641 67.0549L 166.641 60.8015L 159.677 60.8015L 159.067 60.8015L 152.103 60.8015L 152.103 59.5339L 159.067 59.5339L 159.067 53.2806L 152.103 53.2806L 152.103 52.013L 159.677 52.013L 166.641 52.013L 166.641 45.7596L 159.677 45.7596L 152.103 45.7596L 152.103 44.492L 159.067 44.492L 159.067 38.2386L 152.103 38.2386L 136.953 38.2386L 136.343 38.2386L 136.343 37.6048L 136.343 30.7177L 129.379 30.7177L 121.804 30.7177L 114.23 30.7177L 107.265 30.7177L 107.265 36.971L 114.23 36.9711L 114.23 38.2386L 107.265 38.2386L 106.655 38.2386L 99.6907 38.2386L 99.6907 44.492L 106.655 44.492L 107.265 44.492L 107.265 45.1258L 107.265 52.6468L 107.265 53.2806L 106.655 53.2806L 99.6907 53.2806L 99.6907 59.534L 106.655 59.534L 107.265 59.534L 107.265 60.1678L 107.265 67.6887L 107.265 68.3225L 106.655 68.3225L 99.6907 68.3225L 99.6907 74.5758L 106.655 74.5759L 107.265 74.5759L 107.265 75.2096L 107.265 82.7306L 107.265 83.3644L 106.655 83.3644L 99.6907 83.3644L 99.6907 89.6178L 106.655 89.6178L 107.265 89.6178L 107.265 90.2516L 107.265 97.7725L 107.265 98.4063L 106.655 98.4063L 99.6907 98.4063L 99.6907 104.66L 106.655 104.66L 107.265 104.66L 107.265 105.294L 107.265 112.814L 107.265 113.448L 106.655 113.448L 99.6907 113.448L 99.6907 119.702L 106.655 119.702L 107.265 119.702L 107.265 120.335L 107.265 127.856L 106.044 127.856L 106.044 120.969L 99.6907 120.969L 99.0803 120.969L 92.1161 120.969L 92.1161 127.856L 90.8953 127.856L 90.8953 120.969L 83.9311 120.969L 83.3207 120.969L 76.3565 120.969L 76.3565 119.702L 83.3207 119.702L 83.3207 113.448L 76.3565 113.448L 76.3565 112.181L 83.9311 112.181L 90.8953 112.181L 90.8953 105.927L 83.9311 105.927L 83.3207 105.927L 76.3565 105.927L 76.3565 104.66L 83.3207 104.66L 83.3207 98.4063L 76.3565 98.4063L 76.3565 97.1387L 83.3207 97.1387L 83.9311 97.1387L 90.8953 97.1387L 90.8953 90.8854L 83.9311 90.8853L 83.3207 90.8853L 76.3565 90.8853L 76.3565 89.6178L 83.3207 89.6178L 83.3207 83.3644L 76.3565 83.3644L 76.3565 82.0968L 83.3207 82.0968L 83.9311 82.0968L 90.8953 82.0968L 90.8953 75.8434L 83.9311 75.8434L 83.3207 75.8434L 76.3565 75.8434L 76.3565 74.5758L 83.3207 74.5758L 83.3207 68.3224L 76.3565 68.3225L 76.3565 67.0549L 83.9311 67.0549L 90.8953 67.0549L 90.8953 60.8015L 83.9311 60.8015L 83.3206 60.8015L 76.3565 60.8015L 76.3565 59.5339L 83.3206 59.5339L 83.3206 53.2805L 76.3565 53.2805L 75.7461 53.2805L 75.7461 52.6467L 75.7461 45.1258L 75.7461 44.492L 76.3565 44.492L 83.3207 44.492L 83.3207 38.2386L 76.3565 38.2386L 68.7818 38.2386L 61.2072 38.2386L 60.5968 38.2386L 60.5968 37.6048L 60.5968 30.7176L 54.2431 30.7176L 53.6326 30.7176L 46.6684 30.7176L 46.6684 37.6048L 46.6684 38.2386L 46.058 38.2386L 38.4834 38.2386L 30.9088 38.2386L 23.9446 38.2386L 23.9446 44.492L 30.9088 44.492L 30.9088 45.7596L 23.9446 45.7596L 23.3342 45.7596L 16.37 45.7596L 16.37 52.0129L 23.3342 52.0129L 23.9446 52.0129L 23.9446 52.013L 30.9088 52.013L 30.9088 53.2805L 23.9446 53.2805L 23.9446 59.5339L 30.9088 59.5339L 30.9088 60.8015L 23.9446 60.8015L 23.3342 60.8015L 16.37 60.8014L 16.37 67.0548L 23.3342 67.0548L 23.9446 67.0548L 30.9088 67.0549L 30.9088 68.3224L 23.9446 68.3224L 23.9446 74.5758L 30.9089 74.5758L 30.9089 75.8434L 23.9446 75.8434L 23.3342 75.8434L 16.3701 75.8434L 16.3701 82.0967L 23.3343 82.0968L 23.9447 82.0968L 30.9089 82.0968L 30.9089 83.3643L 23.9447 83.3643L 23.9447 89.6177L 30.9089 89.6177L 30.9089 90.8853L 23.9447 90.8853L 23.3343 90.8853L 16.3701 90.8853L 16.3701 97.1386L 23.3343 97.1386L 23.9447 97.1386L 30.9089 97.1387L 30.9089 98.4063L 23.9447 98.4062L 23.9447 104.66L 30.9089 104.66L 30.9089 105.927L 23.9447 105.927L 23.3343 105.927L 16.3701 105.927L 16.3701 112.181L 23.3343 112.181L 23.9447 112.181L 30.9089 112.181L 30.9089 113.448L 23.9447 113.448L 23.9447 119.702L 30.9089 119.702L 30.9089 120.969L 23.9447 120.969L 23.3343 120.969L 16.3701 120.969L 16.3701 127.856L 15.1493 127.856L 15.1493 120.969L 8.18511 120.969L 7.57469 120.969L 0.610505 120.969L 0.610507 119.702L 7.57469 119.702L 7.57469 113.448L 0.610506 113.448L 8.78061e-05 113.448L 8.78061e-05 112.814L 8.78061e-05 105.293L 8.78061e-05 104.66L 0.610506 104.66L 7.57465 104.66L 7.57465 98.4062L 0.610468 98.4062L 4.97245e-05 98.4062L 4.97245e-05 97.7724L 4.97245e-05 90.2515L 4.97245e-05 89.6177L 0.610468 89.6177L 7.57465 89.6177L 7.57465 83.3643L 0.610417 83.3643L 0 83.3643L 0 82.7305L 0 75.2096L 0 74.5758L 0.610419 74.5758L 7.5746 74.5758L 7.5746 68.3224L 0.610418 68.3224L 0 68.3224L 0 67.6886L 0 60.1677L 0 59.5339L 0.610418 59.5339L 7.5746 59.5339L 7.5746 53.2805L 0.610418 53.2805L 0 53.2805L 0 52.6467L 0 45.1258L 0 44.492L 0.610418 44.492L 7.5746 44.492L 7.5746 38.2386L 0.61038 38.2386L 0.61038 36.971L 7.5746 36.971L 8.18502 36.971L 15.1492 36.971L 15.1492 30.7176L 8.18499 30.7176L 7.57457 30.7176L 0.61038 30.7176L 0.61038 29.45L 7.57457 29.45L 7.57457 22.5629L 7.57457 21.9291L 8.18499 21.9291L 15.1492 21.9291L 15.1492 15.0419L 15.1492 14.4081L 15.7596 14.4081L 22.7238 14.4081L 22.7238 7.52095L 22.7238 6.88716L 23.3342 6.88716L 38.4834 6.88715L 45.4475 6.88715L 45.4475 1.28945e-05L 46.6684 1.28945e-05L 46.6684 6.88715L 53.6326 6.88715L 60.5968 6.88717ZM 30.9087 8.15474L 23.9446 8.15474L 23.9446 14.4081L 30.9088 14.4081L 37.873 14.4081L 37.873 8.15477L 30.9087 8.15477L 30.9087 8.15474ZM 39.0938 8.15477L 39.0938 14.4081L 46.058 14.4081L 53.0222 14.4081L 53.0222 8.15473L 46.0579 8.15477L 39.0938 8.15477ZM 54.2431 8.15473L 54.2431 14.4081L 61.2072 14.4081L 68.1714 14.4081L 68.1714 8.15476L 61.2072 8.15476L 54.2431 8.15473ZM 69.3922 8.15476L 69.3922 14.4081L 76.3564 14.4081L 83.3206 14.4081L 83.3206 8.15476L 76.3564 8.15476L 69.3922 8.15476ZM 22.7238 15.6757L 16.37 15.6757L 16.37 21.9291L 23.3342 21.9291L 30.2984 21.9291L 30.2984 15.6757L 23.3342 15.6757L 22.7238 15.6757ZM 31.5192 15.6757L 31.5192 21.9291L 38.4834 21.9291L 45.4476 21.9291L 45.4476 15.6757L 38.4834 15.6757L 31.5192 15.6757ZM 46.6684 15.6757L 46.6684 21.9291L 60.5968 21.9291L 60.5968 15.6757L 53.6326 15.6757L 46.6684 15.6757ZM 61.8176 15.6757L 61.8176 21.9291L 68.1714 21.9291L 68.7818 21.9291L 75.746 21.9291L 75.746 15.6757L 68.7818 15.6757L 61.8176 15.6757ZM 76.9668 15.6757L 76.9668 21.9291L 83.931 21.9291L 90.8952 21.9291L 90.8952 15.6757L 83.931 15.6757L 76.9668 15.6757ZM 92.1161 15.6757L 92.1161 21.9291L 99.0803 21.9291L 106.044 21.9291L 106.044 15.6757L 99.0802 15.6757L 92.1161 15.6757ZM 107.265 15.6757L 107.265 21.9291L 114.23 21.9291L 121.194 21.9291L 121.194 15.6758L 114.229 15.6758L 107.265 15.6757ZM 122.414 15.6758L 122.414 21.9291L 129.379 21.9291L 136.343 21.9291L 136.343 15.6758L 129.379 15.6758L 122.414 15.6758ZM 137.564 15.6758L 137.564 21.9291L 144.528 21.9291L 151.492 21.9291L 151.492 15.6757L 144.528 15.6758L 137.564 15.6758ZM 152.713 15.6757L 152.713 21.9291L 159.677 21.9291L 166.641 21.9291L 166.641 15.6757L 160.287 15.6758L 159.677 15.6758L 152.713 15.6757ZM 68.1714 23.1967L 61.2072 23.1967L 54.2431 23.1967L 54.2431 29.4501L 61.2072 29.4501L 68.1714 29.4501L 68.1714 23.1967ZM 69.3923 29.4501L 76.3565 29.4501L 83.3206 29.4501L 83.3206 23.1967L 76.3564 23.1967L 69.3923 23.1967L 69.3923 29.4501ZM 84.5415 23.1967L 84.5415 29.4501L 91.5057 29.4501L 98.4699 29.4501L 98.4699 23.1967L 91.5056 23.1967L 84.5415 23.1967ZM 99.6907 23.1967L 99.6907 29.4501L 106.655 29.4501L 113.619 29.4501L 113.619 23.1967L 106.655 23.1967L 99.6907 23.1967ZM 114.84 23.1967L 114.84 29.4501L 121.804 29.4501L 128.768 29.4501L 128.768 23.1967L 121.804 23.1967L 114.84 23.1967ZM 129.989 23.1967L 129.989 29.4501L 136.953 29.4501L 143.918 29.4501L 143.918 23.1967L 136.953 23.1967L 129.989 23.1967ZM 145.138 23.1967L 145.138 29.4501L 152.103 29.4501L 152.713 29.4501L 159.067 29.4501L 159.067 23.1967L 152.103 23.1967L 145.138 23.1967ZM 160.288 23.1967L 160.288 29.4501L 167.252 29.4501L 174.216 29.4501L 174.216 23.1967L 167.862 23.1967L 167.252 23.1967L 160.288 23.1967ZM 151.492 30.7177L 144.528 30.7177L 137.564 30.7177L 137.564 36.9711L 151.492 36.9711L 151.492 30.7177ZM 152.713 36.9711L 152.713 30.7177L 159.677 30.7177L 166.641 30.7177L 166.641 36.9711L 159.677 36.9711L 159.067 36.9711L 152.713 36.9711ZM 68.1714 30.7177L 61.8176 30.7176L 61.8176 36.971L 68.7818 36.971L 75.7461 36.971L 75.7461 30.7176L 68.7818 30.7177L 68.1714 30.7177ZM 76.9669 30.7176L 76.9669 36.971L 83.9311 36.971L 90.8953 36.971L 90.8953 30.7176L 83.931 30.7177L 76.9669 30.7176ZM 92.1161 30.7176L 92.1161 36.971L 99.0803 36.971L 106.045 36.9711L 106.045 30.7177L 99.0803 30.7177L 92.1161 30.7176ZM 53.0222 29.4501L 53.0222 23.1967L 46.058 23.1967L 39.0938 23.1967L 39.0938 29.4501L 46.058 29.4501L 53.0222 29.4501ZM 37.873 29.4501L 37.873 23.1967L 30.9088 23.1967L 23.9446 23.1967L 23.9446 29.45L 30.9088 29.4501L 37.873 29.4501ZM 22.7238 29.4501L 22.7238 23.1967L 15.7596 23.1967L 15.1492 23.1967L 8.79541 23.1966L 8.79541 29.45L 15.7596 29.45L 22.7238 29.4501ZM 16.37 30.7176L 16.37 36.971L 23.3342 36.971L 30.2984 36.971L 30.2984 30.7176L 23.3342 30.7176L 16.37 30.7176ZM 31.5192 30.7176L 31.5192 36.971L 38.4834 36.971L 45.4476 36.971L 45.4476 30.7176L 38.4834 30.7176L 31.5192 30.7176ZM 8.79544 38.2386L 8.79544 44.492L 15.7596 44.492L 22.7238 44.492L 22.7238 38.2386L 15.7596 38.2386L 8.79544 38.2386ZM 7.5746 45.7596L 1.22084 45.7596L 1.22084 52.013L 7.5746 52.013L 8.18502 52.013L 15.1492 52.0129L 15.1492 45.7596L 8.18502 45.7596L 7.5746 45.7596ZM 8.79544 53.2805L 8.79544 59.5339L 15.7596 59.5339L 22.7238 59.5339L 22.7238 53.2805L 15.7596 53.2805L 8.79544 53.2805ZM 7.5746 60.8014L 1.22084 60.8014L 1.22084 67.0548L 7.5746 67.0548L 8.18502 67.0548L 15.1492 67.0548L 15.1492 60.8014L 8.18502 60.8015L 7.5746 60.8015L 7.5746 60.8014ZM 8.79544 68.3224L 8.79544 74.5758L 15.7597 74.5758L 22.7238 74.5758L 22.7238 68.3224L 15.7596 68.3224L 8.79544 68.3224ZM 7.5746 75.8434L 1.22084 75.8434L 1.22084 82.0967L 7.57465 82.0967L 8.18507 82.0967L 15.1493 82.0968L 15.1493 75.8434L 8.18502 75.8434L 7.5746 75.8434ZM 8.79549 83.3643L 8.79549 89.6177L 15.7597 89.6177L 22.7239 89.6177L 22.7239 83.3643L 15.7597 83.3643L 8.79549 83.3643ZM 7.57465 90.8853L 1.22089 90.8853L 1.22089 97.1386L 7.57465 97.1386L 8.18507 97.1386L 15.1493 97.1386L 15.1493 90.8853L 8.18507 90.8853L 7.57465 90.8853ZM 8.79549 98.4062L 8.79549 104.66L 15.7597 104.66L 22.7239 104.66L 22.7239 98.4062L 15.7597 98.4062L 8.79549 98.4062ZM 7.57465 105.927L 1.22092 105.927L 1.22092 112.181L 7.57469 112.181L 8.18511 112.181L 15.1493 112.181L 15.1493 105.927L 8.18507 105.927L 7.57465 105.927ZM 8.79552 113.448L 8.79552 119.702L 15.7597 119.702L 22.7239 119.702L 22.7239 113.448L 15.7597 113.448L 8.79552 113.448ZM 84.5415 38.2386L 84.5415 44.492L 91.5057 44.492L 98.4699 44.492L 98.4699 38.2386L 91.5057 38.2386L 84.5415 38.2386ZM 83.3207 45.7596L 76.9669 45.7596L 76.9669 52.013L 83.3206 52.013L 83.9311 52.013L 90.8953 52.013L 90.8953 45.7596L 83.9311 45.7596L 83.3207 45.7596ZM 92.1161 45.7596L 92.1161 52.013L 99.0803 52.013L 99.6907 52.013L 106.044 52.013L 106.045 45.7596L 99.6907 45.7596L 99.0803 45.7596L 92.1161 45.7596ZM 84.5415 53.2805L 84.5415 59.5339L 91.5057 59.5339L 92.1161 59.5339L 98.4698 59.534L 98.4698 53.2806L 91.5057 53.2806L 84.5415 53.2805ZM 92.1161 60.8015L 99.0803 60.8015L 106.044 60.8015L 106.044 67.0549L 99.6907 67.0549L 99.0803 67.0549L 92.1161 67.0549L 92.1161 60.8015ZM 84.5415 68.3224L 84.5415 74.5758L 91.5057 74.5758L 98.4699 74.5759L 98.4699 68.3225L 91.5057 68.3225L 84.5415 68.3224ZM 92.1161 75.8434L 92.1161 82.0968L 99.0803 82.0968L 99.6907 82.0968L 106.044 82.0968L 106.044 75.8434L 99.6907 75.8434L 99.0803 75.8434L 92.1161 75.8434ZM 84.5415 83.3644L 84.5415 89.6178L 98.4699 89.6178L 98.4699 83.3644L 91.5057 83.3644L 84.5415 83.3644ZM 92.1161 90.8853L 92.1161 97.1387L 99.0803 97.1387L 99.6907 97.1387L 106.044 97.1387L 106.044 90.8854L 92.1161 90.8853ZM 84.5415 98.4063L 84.5415 104.66L 91.5057 104.66L 92.1161 104.66L 98.4699 104.66L 98.4699 98.4063L 91.5057 98.4063L 84.5415 98.4063ZM 92.1161 105.927L 99.0803 105.927L 106.044 105.927L 106.044 112.181L 99.6907 112.181L 99.0803 112.181L 92.1161 112.181L 92.1161 105.927ZM 84.5415 113.448L 84.5415 119.702L 91.5057 119.702L 98.4699 119.702L 98.4699 113.448L 91.5057 113.448L 84.5415 113.448ZM 160.288 38.2386L 160.288 44.492L 166.641 44.492L 167.252 44.492L 174.216 44.492L 174.216 38.2386L 167.252 38.2386L 160.288 38.2386ZM 167.862 45.7596L 167.862 52.013L 174.826 52.013L 175.437 52.013L 181.791 52.013L 181.791 45.7596L 175.437 45.7596L 174.826 45.7596L 167.862 45.7596ZM 166.641 53.2806L 160.288 53.2806L 160.288 59.5339L 167.252 59.5339L 174.216 59.534L 174.216 53.2806L 167.252 53.2806L 166.641 53.2806ZM 167.862 60.8015L 167.862 67.0549L 174.826 67.0549L 175.437 67.0549L 181.791 67.055L 181.791 60.8016L 175.437 60.8016L 174.826 60.8016L 167.862 60.8015ZM 160.288 68.3225L 160.288 74.5759L 174.216 74.5759L 174.216 68.3225L 167.252 68.3225L 160.288 68.3225ZM 167.862 75.8435L 167.862 82.0968L 174.826 82.0968L 175.437 82.0968L 181.791 82.0968L 181.791 75.8435L 167.862 75.8435ZM 160.288 83.3644L 160.288 89.6178L 167.252 89.6178L 174.216 89.6178L 174.216 83.3644L 167.252 83.3644L 160.288 83.3644ZM 167.862 90.8854L 167.862 97.1388L 181.791 97.1388L 181.791 90.8854L 175.437 90.8854L 174.826 90.8854L 167.862 90.8854ZM 160.288 98.4063L 160.288 104.66L 167.252 104.66L 174.216 104.66L 174.216 98.4064L 167.252 98.4063L 160.288 98.4063ZM 167.862 105.927L 167.862 112.181L 174.826 112.181L 175.437 112.181L 181.791 112.181L 181.791 105.927L 175.437 105.927L 174.826 105.927L 167.862 105.927ZM 160.288 113.448L 160.288 119.702L 167.252 119.702L 174.216 119.702L 174.216 113.448L 167.252 113.448L 160.288 113.448ZM 167.862 120.969L 167.862 127.223L 174.826 127.223L 181.791 127.223L 181.791 120.969L 175.437 120.969L 174.826 120.969L 167.862 120.969ZM 159.067 14.4082L 159.067 8.15482L 152.713 8.15482L 152.102 8.15482L 145.138 8.15482L 145.138 14.4082L 152.103 14.4082L 159.067 14.4082ZM 143.917 14.4082L 143.917 8.15482L 136.953 8.15482L 129.989 8.15481L 129.989 14.4082L 136.953 14.4082L 143.917 14.4082ZM 128.768 14.4082L 128.768 8.1548L 121.804 8.1548L 114.84 8.1548L 114.84 14.4082L 121.804 14.4082L 128.768 14.4082ZM 113.619 14.4082L 113.619 8.1548L 106.655 8.1548L 99.6907 8.15477L 99.6907 14.4082L 106.655 14.4082L 113.619 14.4082Z"/>
</defs>
</svg>
