<?xml version="1.0" standalone="no"?>
<!DOCTYPE svg PUBLIC "-//W3C//DTD SVG 20010904//EN"
 "http://www.w3.org/TR/2001/REC-SVG-20010904/DTD/svg10.dtd">
<svg version="1.0" xmlns="http://www.w3.org/2000/svg"
 width="760.000000pt" height="760.000000pt" viewBox="0 0 760.000000 760.000000"
 preserveAspectRatio="xMidYMid meet">
<metadata>
Created by potrace 1.11, written by Peter Selinger 2001-2013
</metadata>
<g transform="translate(0.000000,760.000000) scale(0.100000,-0.100000)"
fill="#000000" stroke="none">
<path d="M2248 6355 c-1 -1 -32 -6 -68 -9 -36 -3 -77 -8 -91 -11 -14 -3 -39
-6 -55 -8 -17 -2 -35 -7 -42 -11 -7 -4 -12 -5 -12 -2 0 2 -39 -7 -87 -20 -49
-14 -95 -26 -103 -28 -8 -1 -22 -5 -30 -9 -8 -3 -44 -16 -80 -28 -36 -12 -93
-34 -127 -50 -35 -15 -63 -25 -63 -21 0 4 -4 3 -8 -3 -4 -5 -34 -23 -67 -40
-86 -42 -319 -177 -323 -187 -2 -4 -8 -8 -14 -8 -5 0 -29 -13 -53 -30 -24 -16
-46 -30 -49 -30 -6 0 -163 -109 -221 -153 -74 -57 -230 -219 -295 -307 -14
-18 -30 -38 -35 -44 -55 -59 -203 -325 -255 -456 -23 -57 -78 -230 -85 -265
-2 -11 -4 -20 -5 -20 -1 0 -3 -9 -5 -20 -2 -11 -7 -36 -11 -55 -4 -19 -9 -42
-10 -50 -2 -8 -6 -35 -9 -60 -4 -25 -8 -56 -10 -70 -14 -91 -17 -391 -17
-1535 0 -1247 3 -1399 22 -1435 5 -10 7 -20 4 -23 -10 -10 46 -87 75 -102 25
-12 98 -16 430 -20 449 -6 430 -9 585 69 161 81 233 150 251 241 3 17 8 46 12
65 3 19 7 643 8 1385 1 743 5 1361 9 1375 3 14 8 39 11 55 3 25 15 70 39 150
7 25 18 51 27 65 5 8 12 22 15 30 22 57 98 178 122 193 6 4 12 12 12 16 0 10
77 91 86 91 4 0 14 8 23 18 34 36 99 66 181 86 54 12 267 14 315 2 11 -2 43
-9 70 -16 128 -28 255 -91 374 -185 37 -29 201 -196 201 -205 0 -4 9 -18 21
-31 54 -62 128 -223 154 -335 8 -34 17 -75 21 -90 4 -16 8 -630 9 -1364 2
-734 5 -1360 9 -1390 7 -67 33 -149 55 -174 39 -44 50 -46 472 -51 451 -6 416
-11 586 73 100 48 200 123 220 162 23 47 27 63 38 145 10 75 11 1245 1 1245
-5 0 -4 6 1 13 5 6 7 59 6 117 -2 58 -3 111 -3 118 0 6 0 59 0 117 0 58 0 112
0 120 0 8 0 62 0 120 0 58 0 111 0 118 0 6 1 135 2 285 2 149 -1 272 -5 272
-5 0 -5 5 -1 12 4 6 8 43 9 82 1 39 5 94 9 121 4 28 7 53 7 57 0 4 6 26 14 48
8 22 14 42 14 45 1 16 17 65 32 100 10 22 17 42 17 45 -1 3 11 24 25 47 15 24
27 46 27 49 0 13 110 153 152 194 49 48 128 105 128 93 0 -4 4 -3 8 4 17 26
134 47 267 47 162 0 281 -26 412 -89 243 -118 456 -360 536 -610 52 -164 50
-106 53 -1550 1 -737 4 -1360 7 -1385 13 -101 32 -153 72 -190 l27 -25 431 0
432 0 94 42 c52 23 97 46 100 50 3 4 22 17 42 28 108 59 157 130 173 249 7 51
9 2699 2 2771 -10 105 -17 171 -21 185 -2 8 -7 35 -10 60 -3 25 -11 63 -17 85
-5 22 -11 47 -13 55 -24 126 -123 378 -198 505 -47 79 -101 161 -108 163 -5 2
-9 9 -9 15 0 10 -56 86 -120 162 -103 124 -405 395 -439 395 -6 0 -11 4 -11 8
0 5 -10 14 -22 20 -13 7 -41 23 -63 37 -113 71 -383 186 -496 211 -11 2 -27 6
-36 9 -51 13 -155 34 -199 39 -27 4 -65 9 -84 12 -62 10 -423 12 -490 3 -113
-15 -134 -18 -160 -24 -14 -3 -38 -8 -55 -10 -16 -3 -38 -8 -47 -11 -9 -3 -26
-7 -37 -9 -71 -13 -259 -89 -401 -160 -277 -139 -315 -159 -328 -172 -7 -7
-18 -13 -23 -13 -19 0 -232 -148 -284 -197 -11 -10 -25 -2 -72 45 -32 31 -85
80 -118 107 -33 28 -62 52 -65 55 -3 3 -22 16 -42 30 -21 14 -38 28 -38 33 0
4 -6 7 -13 7 -7 0 -31 13 -53 29 -38 28 -192 109 -285 149 -55 25 -227 81
-266 88 -16 3 -36 7 -45 10 -9 3 -27 7 -40 9 -20 5 -47 9 -181 31 -36 6 -423
14 -429 9z"/>
</g>
</svg>
